<?xml version="1.0" encoding="UTF-8"?>
<!DOCTYPE svg PUBLIC "-//W3C//DTD SVG 1.1//EN" "http://www.w3.org/Graphics/SVG/1.1/DTD/svg11.dtd">
<!-- Creator: CorelDRAW -->
<svg xmlns="http://www.w3.org/2000/svg" xml:space="preserve" width="2.3717mm" height="2.2367mm" version="1.1" style="shape-rendering:geometricPrecision; text-rendering:geometricPrecision; image-rendering:optimizeQuality; fill-rule:evenodd; clip-rule:evenodd"
viewBox="0 0 71.07 67.03"
 xmlns:xlink="http://www.w3.org/1999/xlink"
 xmlns:xodm="http://www.corel.com/coreldraw/odm/2003">
 <defs>
  <style type="text/css">
   <![CDATA[
    .fil0 {fill:#FEFEFE}
   ]]>
  </style>
 </defs>
 <g id="Camada_x0020_1">
  <metadata id="CorelCorpID_0Corel-Layer"/>
  <path class="fil0" d="M27.05 62.92c-4.15,0 -3.66,-5.77 0,-5.77 3.18,0 4.32,5.77 0,5.77zm22 -2.89c0,-2.73 5.77,-5.13 5.77,0.72 0,2.78 -5.77,3.26 -5.77,-0.72zm-49.05 -58.07c0,1.58 0.23,2.08 1.6,2.73l9.22 3.4 5.51 30.2c1.09,5.57 0.46,7.71 4.23,8.03 -0.47,2.02 -1.24,3.6 -1.96,5.63 -1.01,2.89 -0.37,3.75 3.04,3.75 -3.66,5.46 -0.04,11.38 5.36,11.32 4.54,-0.06 9.25,-4.17 5.46,-11.32l14.07 0c-1.95,3.69 -2.17,7.54 1.49,10.05 2,1.38 4.16,1.6 6.5,0.84 3.5,-1.14 6.26,-5.77 2.83,-10.89 5.67,0 3.99,-2.31 2.89,-3.97l-37.15 0c0.45,-1.94 1.41,-3.71 1.8,-5.41l29.22 0c9.14,0 6.42,0.7 12.31,-16.9 0.79,-2.36 1.5,-4.86 2.34,-7.4 2.58,-7.73 4.27,-10.43 -2.02,-10.33 -2.54,0.04 -3.96,-0.38 -6.49,-0.36l-26.34 -1.08c-4.31,0.03 -11.54,-1.81 -11.54,1.8 0,2.1 1.13,2.48 3.24,2.54l11.21 0.69c1.94,0.16 4.15,-0.09 6.11,0.02l11.18 0.73c1.87,0.1 3.91,-0.1 5.77,-0.01 1.94,0.1 3.3,0.36 5.77,0.36 -0.72,1.5 -1.44,4.08 -2.03,5.9l-5.9 18.98 -36.07 0c-0.04,-1.71 -0.81,-4.9 -1.17,-6.76 -0.41,-2.12 -0.84,-4.91 -1.26,-7.04l-3.73 -20.44c-0.51,-3.01 -1.83,-2.78 -4.51,-3.79 -1.52,-0.58 -7.75,-3.31 -8.77,-3.25 -1.02,0.05 -2.21,0.96 -2.21,1.96z"/>
 </g>
</svg>
