<?xml version="1.0" encoding="UTF-8"?>
<!DOCTYPE svg PUBLIC "-//W3C//DTD SVG 1.1//EN" "http://www.w3.org/Graphics/SVG/1.1/DTD/svg11.dtd">
<!-- Creator: CorelDRAW -->
<svg xmlns="http://www.w3.org/2000/svg" xml:space="preserve" width="2.0739mm" height="2.1425mm" version="1.1" style="shape-rendering:geometricPrecision; text-rendering:geometricPrecision; image-rendering:optimizeQuality; fill-rule:evenodd; clip-rule:evenodd"
viewBox="0 0 17.53 18.11"
 xmlns:xlink="http://www.w3.org/1999/xlink"
 xmlns:xodm="http://www.corel.com/coreldraw/odm/2003">
 <defs>
  <style type="text/css">
   <![CDATA[
    .fil0 {fill:#FEFEFE}
   ]]>
  </style>
 </defs>
 <g id="Camada_x0020_1">
  <metadata id="CorelCorpID_0Corel-Layer"/>
  <g id="_2466362209168">
   <path class="fil0" d="M3.68 2.85l0.71 -0.61c0.88,0.59 0.69,1.02 2.04,1.02 1.25,0 1.74,-1.17 1.83,-2.24l1.02 0c0.14,1.63 0.81,2.24 2.24,2.24 0.68,0 1.2,-0.73 1.63,-1.02l0.71 0.61c-0.18,0.79 -0.7,1.18 -0.34,2.17 0.58,1.6 2.26,1.09 2.78,1.09 0.07,0.29 0.19,0.67 0.31,0.92 -0.62,0.42 -1.68,0.8 -1.68,2.04 0,0.53 0.2,0.91 0.53,1.25 0.41,0.43 0.69,0.47 1.15,0.78 -0.12,0.24 -0.24,0.62 -0.31,0.92 -0.54,0 -2.11,-0.51 -2.75,1.01 -0.42,1 0.12,1.41 0.31,2.24 -0.14,0.19 -0.14,0.15 -0.32,0.29 -0.05,0.04 -0.12,0.09 -0.17,0.13 -0.09,0.07 -0.15,0.12 -0.22,0.19 -0.88,-0.59 -0.69,-1.02 -2.04,-1.02 -1.25,0 -1.74,1.17 -1.83,2.24l-1.02 0c-0.14,-1.63 -0.81,-2.24 -2.24,-2.24 -0.68,0 -1.2,0.73 -1.63,1.02l-0.71 -0.61c0.19,-0.79 0.7,-1.18 0.34,-2.17 -0.58,-1.6 -2.26,-1.09 -2.78,-1.09 -0.07,-0.29 -0.19,-0.67 -0.31,-0.92 0.62,-0.42 1.68,-0.8 1.68,-2.04 0,-1.29 -1.09,-1.64 -1.68,-2.04 0.12,-0.24 0.24,-0.62 0.31,-0.92 0.54,0 2.11,0.51 2.75,-1.01 0.32,-0.75 -0.01,-1.56 -0.31,-2.24zm2.54 -0.51c-0.97,0 -1,-1.95 -2.91,-0.47 -1.39,1.08 -0.14,1.55 -0.14,2.5 0,1.62 -2.15,0.11 -2.74,1.23 -1.45,2.8 1.21,2.11 1.21,3.45 0,1.34 -2.66,0.65 -1.21,3.45 0.58,1.12 2.74,-0.39 2.74,1.23 0,0.96 -1.25,1.42 0.14,2.5 1.91,1.48 1.94,-0.47 2.91,-0.47 0.88,0 0.9,0.63 1.07,1.37 0.2,0.81 0.53,0.97 1.47,0.97 2.47,0 0.78,-2.34 2.54,-2.34 0.97,0 1,1.95 2.91,0.47 1.4,-1.08 0.14,-1.55 0.14,-2.5 0,-1.62 2.15,-0.11 2.74,-1.23 1.45,-2.8 -1.21,-2.11 -1.21,-3.45 0,-1.34 2.66,-0.65 1.21,-3.45 -0.58,-1.12 -2.74,0.39 -2.74,-1.23 0,-0.96 1.25,-1.42 -0.14,-2.5 -1.91,-1.48 -1.94,0.47 -2.91,0.47 -0.88,0 -0.9,-0.63 -1.07,-1.37 -0.2,-0.81 -0.53,-0.97 -1.47,-0.97 -2.47,0 -0.78,2.34 -2.54,2.34z"/>
   <path class="fil0" d="M5.61 6.82c0.89,0 0.96,-1.32 3.26,-1.32 1.85,0 3.46,1.57 3.46,3.66 0,3.93 -5.93,4.94 -7.03,0.72 -0.15,-0.56 -0.06,-1.24 -0.2,-1.84 -0.86,-0.2 -0.92,0.23 -0.92,1.02 0,2.49 2.09,4.58 4.58,4.58 2.49,0 4.58,-2.09 4.58,-4.58 0,-4.32 -5.34,-5.96 -7.87,-3.18 -0.29,0.32 -0.41,0.95 0.13,0.95z"/>
  </g>
 </g>
</svg>
