<?xml version="1.0" encoding="UTF-8"?>
<!DOCTYPE svg PUBLIC "-//W3C//DTD SVG 1.1//EN" "http://www.w3.org/Graphics/SVG/1.1/DTD/svg11.dtd">
<!-- Creator: CorelDRAW -->
<svg xmlns="http://www.w3.org/2000/svg" xml:space="preserve" width="2.3907mm" height="2.4697mm" version="1.1" style="shape-rendering:geometricPrecision; text-rendering:geometricPrecision; image-rendering:optimizeQuality; fill-rule:evenodd; clip-rule:evenodd"
viewBox="0 0 24.93 25.76"
 xmlns:xlink="http://www.w3.org/1999/xlink"
 xmlns:xodm="http://www.corel.com/coreldraw/odm/2003">
 <defs>
  <style type="text/css">
   <![CDATA[
    .fil0 {fill:#7B62E4}
   ]]>
  </style>
 </defs>
 <g id="Camada_x0020_1">
  <metadata id="CorelCorpID_0Corel-Layer"/>
  <g id="_1325069371008">
   <path class="fil0" d="M5.23 4.05l1.01 -0.87c1.25,0.84 0.98,1.45 2.89,1.45 1.78,0 2.48,-1.67 2.6,-3.18l1.45 0c0.19,2.32 1.15,3.18 3.18,3.18 0.97,0 1.7,-1.04 2.32,-1.45l1.01 0.87c-0.26,1.13 -0.99,1.68 -0.48,3.08 0.83,2.28 3.21,1.55 3.95,1.55 0.1,0.41 0.27,0.96 0.43,1.3 -0.88,0.59 -2.39,1.13 -2.39,2.89 0,0.76 0.28,1.29 0.76,1.78 0.59,0.61 0.97,0.67 1.63,1.11 -0.16,0.34 -0.34,0.89 -0.43,1.3 -0.77,0 -3.01,-0.72 -3.91,1.44 -0.6,1.42 0.17,2.01 0.44,3.19 -0.19,0.26 -0.2,0.21 -0.45,0.42 -0.07,0.05 -0.17,0.13 -0.25,0.19 -0.13,0.1 -0.21,0.18 -0.31,0.26 -1.25,-0.84 -0.98,-1.45 -2.89,-1.45 -1.78,0 -2.48,1.67 -2.6,3.18l-1.45 0c-0.19,-2.32 -1.15,-3.18 -3.18,-3.18 -0.97,0 -1.7,1.04 -2.32,1.45l-1.01 -0.87c0.26,-1.13 0.99,-1.68 0.48,-3.08 -0.83,-2.28 -3.21,-1.55 -3.96,-1.55 -0.1,-0.41 -0.27,-0.96 -0.43,-1.3 0.88,-0.59 2.39,-1.13 2.39,-2.89 0,-1.83 -1.54,-2.33 -2.39,-2.89 0.16,-0.34 0.34,-0.89 0.43,-1.3 0.77,0 3.01,0.72 3.91,-1.44 0.45,-1.07 -0.01,-2.22 -0.44,-3.19zm3.62 -0.72c-1.38,0 -1.42,-2.78 -4.14,-0.67 -1.98,1.54 -0.2,2.2 -0.2,3.56 0,2.3 -3.06,0.16 -3.89,1.75 -2.06,3.98 1.72,3 1.72,4.9 0,1.91 -3.79,0.93 -1.72,4.9 0.83,1.59 3.89,-0.55 3.89,1.75 0,1.36 -1.78,2.02 0.2,3.56 2.72,2.11 2.76,-0.67 4.14,-0.67 1.25,0 1.27,0.89 1.53,1.94 0.28,1.16 0.76,1.38 2.09,1.38 3.51,0 1.11,-3.33 3.62,-3.33 1.38,0 1.42,2.78 4.14,0.67 1.98,-1.54 0.2,-2.2 0.2,-3.56 0,-2.3 3.06,-0.16 3.89,-1.75 2.06,-3.98 -1.72,-3 -1.72,-4.9 0,-1.9 3.79,-0.93 1.72,-4.9 -0.83,-1.59 -3.89,0.55 -3.89,-1.75 0,-1.36 1.78,-2.02 -0.2,-3.56 -2.72,-2.11 -2.76,0.67 -4.14,0.67 -1.25,0 -1.27,-0.89 -1.53,-1.94 -0.28,-1.16 -0.76,-1.38 -2.09,-1.38 -3.51,0 -1.11,3.33 -3.62,3.33z"/>
   <path class="fil0" d="M7.98 9.69c1.26,0 1.37,-1.88 4.63,-1.88 2.63,0 4.92,2.23 4.92,5.21 0,5.59 -8.44,7.02 -9.99,1.02 -0.21,-0.8 -0.08,-1.77 -0.28,-2.61 -1.23,-0.29 -1.3,0.33 -1.3,1.45 0,3.54 2.97,6.51 6.51,6.51 3.54,0 6.51,-2.97 6.51,-6.51 0,-6.15 -7.59,-8.48 -11.19,-4.53 -0.42,0.46 -0.58,1.34 0.19,1.34z"/>
  </g>
 </g>
</svg>
