<?xml version="1.0" encoding="UTF-8"?>
<!DOCTYPE svg PUBLIC "-//W3C//DTD SVG 1.1//EN" "http://www.w3.org/Graphics/SVG/1.1/DTD/svg11.dtd">
<!-- Creator: CorelDRAW -->
<svg xmlns="http://www.w3.org/2000/svg" xml:space="preserve" width="2.5516mm" height="2.2426mm" version="1.1" style="shape-rendering:geometricPrecision; text-rendering:geometricPrecision; image-rendering:optimizeQuality; fill-rule:evenodd; clip-rule:evenodd"
viewBox="0 0 34.69 30.49"
 xmlns:xlink="http://www.w3.org/1999/xlink"
 xmlns:xodm="http://www.corel.com/coreldraw/odm/2003">
 <defs>
  <style type="text/css">
   <![CDATA[
    .fil0 {fill:#FEFEFE}
   ]]>
  </style>
 </defs>
 <g id="Camada_x0020_1">
  <metadata id="CorelCorpID_0Corel-Layer"/>
  <path class="fil0" d="M8.18 26.56l19.15 0c1.88,0 4.1,-4.46 4.91,-5.9 0.02,-0.03 0.04,-0.07 0.06,-0.1l0.27 7.8 -24.38 0 0 -1.8zm-4.75 -2.13c2.86,-4.27 4.75,-8.74 4.75,-14.24l24.38 0c0,4.5 -2.04,10.83 -5.02,13.8 -0.66,0.66 -1.13,0.44 -2.35,0.44 -7.25,-0.02 -14.51,0 -21.76,0zm4.75 -20.29l4.09 0c0,1.74 -0,2.22 1.8,1.8 0.35,-0.73 0.33,-0.95 0.33,-1.8l4.91 0c0,1.49 -0.03,1.96 1.31,1.96 1,0 0.82,-1.38 0.82,-1.96l5.07 0c0,1.49 -0.03,1.96 1.31,1.96 0.93,0 0.82,-1.37 0.82,-1.96l3.93 0 0 3.93 -24.38 0 0 -3.93zm4.09 -3.27l0 1.15c-7.45,0 -6.22,-1.22 -6.22,6.38 0,3.93 -0.8,9.1 -2.81,12.4 -0.68,1.11 -1.36,2.35 -2.38,3.35 -0.49,0.48 -0.86,0.6 -0.86,1.27 0,0.78 0.55,1.15 1.31,1.15l4.74 0c0,1.68 -0.37,3.93 0.82,3.93l27 0c0.38,0 0.82,-0.44 0.82,-0.82l0 -26.84c0,-0.53 -0.59,-0.82 -1.14,-0.82l-4.91 0c0,-1.37 0.18,-1.96 -1.31,-1.96 -0.93,0 -0.82,1.37 -0.82,1.96l-5.07 0c0,-1.37 0.18,-1.96 -1.31,-1.96 -0.93,0 -0.82,1.37 -0.82,1.96l-4.91 0c0,-3.18 -2.13,-1.81 -2.13,-1.15z"/>
 </g>
</svg>
