<?xml version="1.0" encoding="UTF-8"?>
<!DOCTYPE svg PUBLIC "-//W3C//DTD SVG 1.1//EN" "http://www.w3.org/Graphics/SVG/1.1/DTD/svg11.dtd">
<!-- Creator: CorelDRAW -->
<svg xmlns="http://www.w3.org/2000/svg" xml:space="preserve" width="2.3717mm" height="2.2367mm" version="1.1" style="shape-rendering:geometricPrecision; text-rendering:geometricPrecision; image-rendering:optimizeQuality; fill-rule:evenodd; clip-rule:evenodd"
viewBox="0 0 228.99 215.96"
 xmlns:xlink="http://www.w3.org/1999/xlink"
 xmlns:xodm="http://www.corel.com/coreldraw/odm/2003">
 <defs>
  <style type="text/css">
   <![CDATA[
    .fil0 {fill:#7B62E4}
   ]]>
  </style>
 </defs>
 <g id="Camada_x0020_1">
  <metadata id="CorelCorpID_0Corel-Layer"/>
  <path class="fil0" d="M87.16 202.72c-13.38,0 -11.8,-18.6 0,-18.6 10.25,0 13.92,18.6 0,18.6zm70.89 -9.3c0,-8.81 18.6,-16.52 18.6,2.33 0,8.95 -18.6,10.51 -18.6,-2.33zm-158.05 -187.1c0,5.1 0.75,6.69 5.16,8.79l29.7 10.97 17.74 97.31c3.5,17.96 1.49,24.85 13.64,25.87 -1.52,6.52 -4.01,11.6 -6.31,18.15 -3.26,9.33 -1.18,12.07 9.8,12.07 -11.78,17.6 -0.12,36.68 17.26,36.47 14.64,-0.18 29.8,-13.44 17.6,-36.47l45.32 0c-6.29,11.88 -6.98,24.29 4.81,32.37 6.46,4.43 13.4,5.16 20.95,2.7 11.28,-3.66 20.16,-18.58 9.1,-35.08 18.28,0 12.87,-7.45 9.3,-12.78l-119.7 0c1.46,-6.26 4.53,-11.95 5.81,-17.44l94.13 0c29.45,0.01 20.69,2.24 39.65,-54.46 2.55,-7.62 4.82,-15.65 7.55,-23.83 8.3,-24.9 13.77,-33.59 -6.52,-33.28 -8.18,0.13 -12.75,-1.22 -20.92,-1.16l-84.85 -3.48c-13.87,0.09 -37.18,-5.84 -37.18,5.81 0,6.78 3.64,7.98 10.43,8.17l36.12 2.23c6.26,0.52 13.37,-0.29 19.7,0.06l36.01 2.34c6.02,0.32 12.59,-0.34 18.61,-0.02 6.24,0.34 10.63,1.17 18.59,1.17 -2.32,4.84 -4.62,13.13 -6.55,19.02l-19.02 61.17 -116.21 0c-0.12,-5.51 -2.62,-15.79 -3.78,-21.78 -1.33,-6.85 -2.71,-15.82 -4.05,-22.67l-12.02 -65.85c-1.63,-9.7 -5.91,-8.95 -14.52,-12.2 -4.9,-1.85 -24.98,-10.65 -28.24,-10.48 -3.27,0.17 -7.11,3.09 -7.11,6.31z"/>
 </g>
</svg>
