<?xml version="1.0" encoding="UTF-8"?>
<!DOCTYPE svg PUBLIC "-//W3C//DTD SVG 1.1//EN" "http://www.w3.org/Graphics/SVG/1.1/DTD/svg11.dtd">
<!-- Creator: CorelDRAW -->
<svg xmlns="http://www.w3.org/2000/svg" xml:space="preserve" width="2.5516mm" height="2.2426mm" version="1.1" style="shape-rendering:geometricPrecision; text-rendering:geometricPrecision; image-rendering:optimizeQuality; fill-rule:evenodd; clip-rule:evenodd"
viewBox="0 0 42.45 37.31"
 xmlns:xlink="http://www.w3.org/1999/xlink"
 xmlns:xodm="http://www.corel.com/coreldraw/odm/2003">
 <defs>
  <style type="text/css">
   <![CDATA[
    .fil0 {fill:#7B62E4}
   ]]>
  </style>
 </defs>
 <g id="Camada_x0020_1">
  <metadata id="CorelCorpID_0Corel-Layer"/>
  <path class="fil0" d="M10.01 32.51l23.43 0c2.3,0 5.02,-5.46 6,-7.21 0.02,-0.04 0.05,-0.09 0.07,-0.13l0.33 9.54 -29.84 0 0 -2.2zm-5.81 -2.6c3.5,-5.23 5.81,-10.7 5.81,-17.42l29.84 0c0,5.51 -2.49,13.26 -6.14,16.89 -0.81,0.81 -1.39,0.54 -2.87,0.53 -8.88,-0.03 -17.76,0 -26.63,0zm5.81 -24.83l5.01 0c0,2.13 -0,2.72 2.2,2.2 0.43,-0.9 0.4,-1.16 0.4,-2.2l6.01 0c0,1.83 -0.04,2.4 1.6,2.4 1.23,0 1,-1.69 1,-2.4l6.21 0c0,1.83 -0.04,2.4 1.6,2.4 1.14,0 1,-1.68 1,-2.4l4.8 0 0 4.81 -29.84 0 0 -4.81zm5.01 -4l0 1.4c-9.12,0 -7.61,-1.49 -7.61,7.81 0,4.81 -0.97,11.13 -3.44,15.18 -0.83,1.36 -1.66,2.87 -2.91,4.1 -0.6,0.59 -1.05,0.73 -1.05,1.55 0,0.96 0.68,1.4 1.6,1.4l5.81 0c0,2.05 -0.45,4.8 1,4.8l33.04 0c0.47,0 1,-0.53 1,-1l0 -32.84c0,-0.65 -0.73,-1 -1.4,-1l-6.01 0c0,-1.68 0.21,-2.4 -1.6,-2.4 -1.14,0 -1,1.68 -1,2.4l-6.21 0c0,-1.68 0.21,-2.4 -1.6,-2.4 -1.14,0 -1,1.68 -1,2.4l-6.01 0c0,-3.89 -2.6,-2.22 -2.6,-1.4z"/>
 </g>
</svg>
