<?xml version="1.0" encoding="UTF-8"?>
<!DOCTYPE svg PUBLIC "-//W3C//DTD SVG 1.1//EN" "http://www.w3.org/Graphics/SVG/1.1/DTD/svg11.dtd">
<!-- Creator: CorelDRAW -->
<svg xmlns="http://www.w3.org/2000/svg" xml:space="preserve" width="2.5532mm" height="2.5517mm" version="1.1" style="shape-rendering:geometricPrecision; text-rendering:geometricPrecision; image-rendering:optimizeQuality; fill-rule:evenodd; clip-rule:evenodd"
viewBox="0 0 49.09 49.06"
 xmlns:xlink="http://www.w3.org/1999/xlink"
 xmlns:xodm="http://www.corel.com/coreldraw/odm/2003">
 <defs>
  <style type="text/css">
   <![CDATA[
    .fil0 {fill:#FEFEFE}
   ]]>
  </style>
 </defs>
 <g id="Camada_x0020_1">
  <metadata id="CorelCorpID_0Corel-Layer"/>
  <g id="_2466359298928">
   <path class="fil0" d="M1.62 46.29c0,-0.62 0.11,-0.64 0.23,-1.16l45.36 0c0.32,1.33 0.37,0.48 0,2.08 -0.52,0.12 -0.53,0.23 -1.16,0.23l-43.05 0c-0.62,0 -0.64,-0.11 -1.16,-0.23 -0.15,-0.62 -0.23,-0.44 -0.23,-0.93zm6.2 -6.24c3.49,-0 2.21,0.92 4.44,0.92 2.23,0 0.95,-0.92 4.4,-0.92l-0.28 3.23 -8.29 0.01 -0.28 -3.24zm28.05 -7.18l0 -1.62 1.85 0 -0.23 12.03 -1.39 0c0,-3.74 -0.23,-6.66 -0.23,-10.42zm-28.7 2.32c6.13,0 2.26,-0.69 5.32,-0.69 1.27,0 0.79,0.55 2.08,0.69 0.7,0.08 2.01,0 2.78,0 -0.18,0.37 -0.45,2.67 -0.46,3.24 -5.56,0 -1.82,0.69 -4.86,0.69 -2.09,0 0.94,-0.69 -4.4,-0.69 -0.01,-0.57 -0.29,-2.87 -0.46,-3.24zm33.1 8.1l-0.93 0 0.23 -12.03 1.85 0 -0.91 8.81c-0.11,1.29 -0.25,1.95 -0.25,3.22zm-8.1 -12.03l1.85 0 0.23 12.03 -0.92 0c0,-1.25 -0.16,-1.8 -0.24,-3l-0.62 -5.86c-0.12,-0.94 -0.3,-2.4 -0.3,-3.17zm9.95 12.03c0,-4.01 0.84,-8.24 1.16,-12.03l1.62 0 -1.37 9.74c-0.21,1.6 0.13,2.27 -1.4,2.3zm-13.42 -12.03l1.62 0c0.32,3.8 1.16,8.03 1.16,12.03 -1.68,-0.04 -1.29,-1.43 -1.87,-5.54 -0.3,-2.15 -0.64,-4.34 -0.91,-6.49zm-21.99 -0.93l11.11 0c-0.09,3.91 -0.43,3.24 -2.32,3.24 -1.18,0 -1.57,-0.92 -3.24,-0.92 -2.32,0 -0.76,0.92 -4.63,0.92 -0.84,0 -0.67,-0.57 -0.72,-1.36 -0.07,-0.99 -0.18,-0.95 -0.21,-1.88zm21.75 12.96l-10.18 0c0,-2.44 0.8,-7.97 1.11,-10.93 0.03,-0.28 0.03,-0.61 0.07,-0.86 0.42,-2.63 3.14,-1.87 7.62,-1.87 0,0.92 -0.16,1.05 -0.17,1.62 -0,1.02 1.55,9.93 1.55,12.03zm0.93 -15.27c1.66,0 1.77,0.92 2.37,-0.87 0.47,-1.39 0.89,-1.21 2.72,-1.21 0.79,-1.5 0.93,-2.08 2.31,-2.08 1.47,0 1.81,1.13 2.32,2.08 4.18,0 1.87,1.61 3.34,2.21 1.01,0.42 2.24,-1.2 2.44,1.26 -1.45,0 -1.2,0.13 -2.22,0.31 -0.93,0.17 -0.94,-0.31 -2.17,-0.31 -1.01,0 -1.27,0.35 -1.85,0.35 -0.58,0 -0.84,-0.35 -1.85,-0.35 -1.01,0 -1.27,0.35 -1.85,0.35 -0.58,0 -0.84,-0.35 -1.85,-0.35 -1.01,0 -1.27,0.35 -1.85,0.35 -0.63,0 -0.56,-0.35 -2.55,-0.35 0.01,-0.65 0.12,-1.39 0.69,-1.39zm-24.3 -0.93l14.35 0 0 1.39 -14.35 0 0 -1.39zm6.25 -7.4l0 5.55c-6.5,0 -8.1,-0.79 -8.1,2.55 -0.84,0 -1.62,0.15 -1.62,-1.39 0,-3.97 -0.34,-22.09 0.23,-24.53 0.52,-0.12 0.53,-0.23 1.16,-0.23l43.05 0c0.62,0 0.64,0.11 1.16,0.23 0.57,2.44 0.23,20.56 0.23,24.53 0,0.86 -0.23,1.05 -0.69,1.39 -1.12,-0.3 -0.49,-1.11 -2.39,-1.55 -1.41,-0.33 -0.5,0.3 -1.28,-0.57 -2.37,-2.63 -1.75,-0.42 -3.57,-2.45 -1.48,-1.65 -3.95,-1.65 -5.43,0 -1.76,1.97 -1.23,-0.09 -3.45,2.34 -0.91,1 0.1,0.34 -1.4,0.68 -1.72,0.4 -1.61,1.55 -2.39,1.55l-5.55 0c0,-3.34 -1.6,-2.55 -8.1,-2.55 0,-3.24 0.58,-6.48 -0.93,-6.48 -0.54,0 -0.92,0.38 -0.92,0.93zm-11.34 -17.82l0 25.46c0,3.26 4.51,1.15 5.04,3.99l1.21 11.98c-5.06,0 -6.25,-0.54 -6.25,3.93 0,0.71 1.07,1.85 2.32,1.85l44.9 0c0.38,0 1.07,-0.51 1.3,-0.79 1.04,-1.28 0.83,-5 -1.76,-5l-1.62 0 1.29 -10.05c0.5,-3.34 0.1,-1.72 0.1,-3.37 0,-0.72 2.54,-0.22 2.54,-2.55l0 -24.99c0,-1.25 -1.14,-2.32 -1.85,-2.32l-45.36 0c-0.68,0 -1.85,1.17 -1.85,1.85z"/>
   <path class="fil0" d="M16.43 15.04c0,-4.92 3.93,-8.33 7.17,-8.33 2.95,0 4.32,0.02 6.77,2.48 7.15,7.18 -3.61,18.6 -11.44,11.44 -1.32,-1.21 -2.51,-3.54 -2.51,-5.59zm-1.85 -0.46c0,2.82 1.25,5.32 2.71,6.77 1.03,1.02 1.35,1.41 2.7,2.16 2.45,1.36 6.45,1.37 8.92,0.08 1.87,-0.97 3.78,-2.91 4.64,-4.85 4.41,-9.89 -8.2,-18.77 -16.03,-10.94 -1.72,1.73 -2.95,4.23 -2.95,6.77z"/>
   <path class="fil0" d="M22.22 18.51c0,-1.47 0,-2.93 0,-4.4 -0.01,-5.07 0.13,-3.86 5.1,-0.7 0.79,0.51 1.15,0.49 1.15,1.39 0,0.89 -2.15,1.89 -2.78,2.32 -0.53,0.35 -0.93,0.62 -1.52,1.03 -0.91,0.63 -0.86,0.61 -1.95,0.36zm-1.85 -6.71c0,3.86 -0.73,7.74 1.84,8.59 1.7,0.56 3.81,-1.42 5.98,-2.85 1.24,-0.82 2.13,-1.19 2.13,-2.96 0,-1.57 -1.51,-2.32 -2.96,-3.29 -1.94,-1.3 -2.74,-2.27 -4.68,-2.27 -1.45,0 -2.31,1.28 -2.31,2.78z"/>
  </g>
 </g>
</svg>
