<?xml version="1.0" encoding="UTF-8"?>
<!DOCTYPE svg PUBLIC "-//W3C//DTD SVG 1.1//EN" "http://www.w3.org/Graphics/SVG/1.1/DTD/svg11.dtd">
<!-- Creator: CorelDRAW -->
<svg xmlns="http://www.w3.org/2000/svg" xml:space="preserve" width="2.6654mm" height="1.7293mm" version="1.1" style="shape-rendering:geometricPrecision; text-rendering:geometricPrecision; image-rendering:optimizeQuality; fill-rule:evenodd; clip-rule:evenodd"
viewBox="0 0 71.4 46.32"
 xmlns:xlink="http://www.w3.org/1999/xlink"
 xmlns:xodm="http://www.corel.com/coreldraw/odm/2003">
 <defs>
  <style type="text/css">
   <![CDATA[
    .fil0 {fill:#7B62E4}
    .fil1 {fill:#F7F7F7}
   ]]>
  </style>
 </defs>
 <g id="Camada_x0020_1">
  <metadata id="CorelCorpID_0Corel-Layer"/>
  <g id="_1289656381792">
   <path class="fil0" d="M6.77 0.44c-3.54,0.87 -6.51,3.77 -6.73,7.93l-0.04 29.14c0.15,4.29 2.94,7.36 6.41,8.37 1.82,0.54 56.04,0.61 58.14,0.05 9,-2.37 6.51,-13.08 6.61,-22.48 0.05,-4.78 0.12,-9.83 -0.02,-14.59 -0.12,-4.29 -2.93,-7.44 -6.35,-8.39 -2.18,-0.61 -55.54,-0.65 -58.03,-0.04zm60.71 13.83l-6.98 0.02 0.02 6.84c0.32,0.75 1.7,0.45 3.44,0.43 1.2,-0.01 2.49,0.11 3.65,-0.13l0.18 -6.36c-0.12,-0.89 0.04,-0.38 -0.31,-0.81zm-6.99 17.38c0.31,0.8 -0.2,0.23 0.52,0.47 0.16,0.05 0.85,0.08 1.04,0.08 0.62,0.01 1.28,-0.01 1.9,-0.02 1.21,-0.01 2.53,0.13 3.68,-0.16 0.11,-1.21 0.41,-5.97 -0.29,-7.01l-6.86 -0.04 -0.01 6.68zm0.02 -25.21l0.01 4.24 7.05 0.06c0.19,-5.03 -1.93,-7.43 -7.07,-6.98l0.01 2.68zm-0.01 36.18c5.1,0.44 7.26,-1.99 7.09,-6.98l-7.1 0.01 0.01 6.98zm-56.96 -26.72l-0.01 5.33c3.71,0.31 3.33,0.21 7.11,0.15l0 -7.04 -7.11 -0.03 0.01 1.59zm0.24 16.19l6.86 0.02 0.06 -7.01c-0.45,-0.56 -6.13,-0.42 -7.18,-0.16l-0.17 5.58c0.02,1.81 0.13,1.31 0.43,1.58zm-0.18 -21.36l7.02 -0.01 0.03 -6.95c-4.85,-0.47 -7.52,2.06 -7.05,6.96zm7.03 31.89l0.01 -6.94 -7.12 -0.06c0.08,2.63 0.15,4.04 1.64,5.54 1.4,1.41 2.99,1.66 5.47,1.45z"/>
   <path class="fil1" d="M14.23 8.86l0.02 33.8 42.68 0.01 -0.01 -38.97c-13.74,-0.24 -28.78,0.1 -42.71,-0.02l0.01 5.17z"/>
   <path class="fil0" d="M46.13 24.1l0.08 -1.84c-4.71,-2.99 -9.11,-5.61 -13.92,-8.47 -1.25,-0.74 -2.36,-1.41 -3.56,-2.12 -5.15,-3.05 -3.87,2.4 -3.82,11.53 0.01,1.95 -0.25,9.78 0.1,11.06 0.81,2.93 4.34,0.05 7.06,-1.6 3.8,-2.29 10.47,-6.05 14.07,-8.55z"/>
   <path class="fil1" d="M28.45 16.97l0 13.59 12.02 -7.64 -2.67 -1.69c-1.11,-0.66 -2.04,-1.21 -3.05,-1.82 -1.62,-0.97 -4.72,-3.05 -6.3,-3.6l-0 1.16z"/>
   <path class="fil1" d="M3.55 15.89l-0.01 5.33c3.71,0.31 3.33,0.21 7.11,0.15l0 -7.04 -7.11 -0.03 0.01 1.59zm0.24 16.19l6.86 0.02 0.06 -7.01c-0.45,-0.56 -6.13,-0.42 -7.18,-0.16l-0.17 5.58c0.02,1.81 0.13,1.31 0.43,1.58zm-0.18 -21.36l7.02 -0.01 0.03 -6.95c-4.85,-0.47 -7.52,2.06 -7.05,6.96zm7.03 31.89l0.01 -6.94 -7.12 -0.06c0.08,2.63 0.15,4.04 1.64,5.54 1.4,1.41 2.99,1.66 5.47,1.45z"/>
   <path class="fil1" d="M67.48 14.26l-6.98 0.02 0.02 6.84c0.32,0.75 1.7,0.45 3.44,0.43 1.2,-0.01 2.49,0.11 3.65,-0.13l0.18 -6.36c-0.12,-0.89 0.04,-0.38 -0.31,-0.81zm-6.99 17.38c0.31,0.8 -0.2,0.23 0.52,0.47 0.16,0.05 0.85,0.08 1.04,0.08 0.62,0.01 1.28,-0.01 1.9,-0.02 1.21,-0.01 2.53,0.13 3.68,-0.16 0.11,-1.21 0.41,-5.97 -0.29,-7.01l-6.86 -0.04 -0.01 6.68zm0.02 -25.21l0.01 4.24 7.05 0.06c0.19,-5.03 -1.93,-7.43 -7.07,-6.98l0.01 2.68zm-0.01 36.18c5.1,0.44 7.26,-1.99 7.09,-6.98l-7.1 0.01 0.01 6.98z"/>
  </g>
 </g>
</svg>
