<?xml version="1.0" encoding="UTF-8"?>
<!DOCTYPE svg PUBLIC "-//W3C//DTD SVG 1.1//EN" "http://www.w3.org/Graphics/SVG/1.1/DTD/svg11.dtd">
<!-- Creator: CorelDRAW -->
<svg xmlns="http://www.w3.org/2000/svg" xml:space="preserve" width="2.7582mm" height="2.6443mm" version="1.1" style="shape-rendering:geometricPrecision; text-rendering:geometricPrecision; image-rendering:optimizeQuality; fill-rule:evenodd; clip-rule:evenodd"
viewBox="0 0 26.94 25.82"
 xmlns:xlink="http://www.w3.org/1999/xlink"
 xmlns:xodm="http://www.corel.com/coreldraw/odm/2003">
 <defs>
  <style type="text/css">
   <![CDATA[
    .str0 {stroke:#7B62E4;stroke-width:0.74;stroke-miterlimit:22.9256}
    .fil0 {fill:#7B62E4;fill-rule:nonzero}
   ]]>
  </style>
 </defs>
 <g id="Camada_x0020_1">
  <metadata id="CorelCorpID_0Corel-Layer"/>
  <path class="fil0 str0" d="M13.45 0.37c-0.11,0 -0.22,0.04 -0.32,0.11l-12.55 9.79c-0.13,0.1 -0.21,0.26 -0.21,0.43 0,0.3 0.24,0.55 0.55,0.55 0.12,0 0.24,-0.04 0.34,-0.12l0.75 -0.59 0 14.35c0,0.3 0.25,0.54 0.55,0.54l7.55 0c0.03,0 0.06,0.01 0.09,0.01 0.03,0 0.06,-0 0.09,-0.01l6.37 0c0.03,0 0.06,0.01 0.09,0.01 0.03,0 0.06,-0 0.09,-0.01l7.55 0c0.3,0 0.55,-0.24 0.55,-0.55l0 -14.35 0.75 0.59c0.1,0.07 0.21,0.12 0.34,0.12 0.3,0 0.55,-0.25 0.55,-0.55 0,-0.17 -0.08,-0.33 -0.21,-0.43l-4.16 -3.24 0 -3.97 -3.27 0 0 1.41 -5.12 -4c-0.1,-0.07 -0.21,-0.11 -0.33,-0.11 -0.01,0 -0.01,0 -0.02,0zm0.02 1.24l10.37 8.09 0 14.65 -6.55 0 0 -10.37 -7.64 0 0 10.37 -6.55 0 0 -14.65 10.37 -8.09zm6.55 2.55l1.09 0 0 2.02 -1.09 -0.85 0 -1.17zm-9.28 10.91l5.46 0 0 9.28 -5.46 0 0 -9.28z"/>
 </g>
</svg>
