<?xml version="1.0" encoding="UTF-8"?>
<!DOCTYPE svg PUBLIC "-//W3C//DTD SVG 1.1//EN" "http://www.w3.org/Graphics/SVG/1.1/DTD/svg11.dtd">
<!-- Creator: CorelDRAW -->
<svg xmlns="http://www.w3.org/2000/svg" xml:space="preserve" width="2.1686mm" height="2.5517mm" version="1.1" style="shape-rendering:geometricPrecision; text-rendering:geometricPrecision; image-rendering:optimizeQuality; fill-rule:evenodd; clip-rule:evenodd"
viewBox="0 0 167.41 196.98"
 xmlns:xlink="http://www.w3.org/1999/xlink"
 xmlns:xodm="http://www.corel.com/coreldraw/odm/2003">
 <defs>
  <style type="text/css">
   <![CDATA[
    .fil0 {fill:#FEFEFE}
   ]]>
  </style>
 </defs>
 <g id="Camada_x0020_1">
  <metadata id="CorelCorpID_0Corel-Layer"/>
  <g id="_2466359252608">
   <path class="fil0" d="M117.07 147.74l8.37 0 1.85 42.74 -12.07 0c0,-13.91 1.85,-28.52 1.85,-42.74zm14.65 0.01l6.72 -0.01c0,14.09 4.64,28.93 4.64,42.74l-10.22 0 -1.14 -42.73zm-23.01 42.73l-10.22 0c0.83,-1.72 5.57,-38.68 5.57,-42.74l6.51 0c0,3.55 0.19,7.67 0,11.15l-1.86 31.58zm36.24 -42.74l6.51 0c1.64,7.04 3.13,14.3 4.56,21.45 0.95,4.74 3.19,18.08 4.72,21.29l-11.15 0c0,-11.07 -4.65,-29.61 -4.65,-42.74zm-63.18 42.74c1.59,-6.83 2.61,-13.57 4.28,-20.8 1.34,-5.78 4.08,-16.08 4.08,-21.93l7.43 0 -4.59 39.08c-0.69,4.86 -0.78,3.65 -11.21,3.65zm28.8 -65.04c11.66,0 24.86,-1.63 33.09,4.07 2.88,2 6.51,7.5 6.86,11.73l-58.53 0c0.19,-8.53 9.79,-15.79 18.58,-15.79zm-35.31 65.04l-55.74 0c-2.42,-3.61 -3.71,-3.83 -3.75,-12.98 -0.03,-7.05 -0.83,-10.12 -0.88,-16.77l-1.88 -32.51c2.36,1.58 3.2,2.82 5.32,4.9 1.95,1.92 3.63,2.84 5.97,4.24 11.73,6.99 40.5,6.79 51.87,0.13 8.62,-5.05 9.7,-8.45 12.1,-10.2l-9.68 47c-0.59,3 -0.96,4.97 -1.54,7.75 -0.59,2.83 -1.54,5.39 -1.79,8.43zm41.81 -75.26l8.37 0 0 3.71 -8.37 0 0 -3.71zm-104.99 -3.71l76.19 0c-0.25,11.17 -15.16,24.15 -28.8,24.15 -17.47,0 -24.75,2.09 -37.2,-7.4 -7.26,-5.53 -8.02,-11.93 -10.18,-16.76zm106.85 -102.21c0,-2.81 1.1,-2.57 3.72,-2.79l0 102.21 -3.72 0 0 -99.42zm-109.64 91.99l82.7 0c2.81,0 2.56,1.09 2.79,3.71 -12.61,0 -84.13,1.51 -89.2,-0.93 0.97,-1.45 1.24,-2.79 3.71,-2.79zm101.28 17.65c-9.06,0.76 -11.67,3.69 -15.79,4.65 1.48,-3.1 0.93,-7.58 0.93,-12.07 3.71,-2.49 5.57,-2.67 5.57,-8.37 0,-4.49 -2.93,-7.43 -7.43,-7.43l-88.27 0c-4.35,0 -5.57,4.76 -5.57,8.36 0,6.08 3.75,4.69 5.2,8.74 1.35,3.78 0.17,9.21 0.76,13.17 1.89,12.55 1.88,58.96 6.21,65.34 1.68,2.47 5.23,5.67 9.19,5.67l143.09 0c6.37,0 0.77,-15.42 -1.47,-25.48 -1.81,-8.15 -2.79,-15.12 -4.68,-23.2 -2.38,-10.11 -1.14,-13.46 -7.42,-20.45 -5.22,-5.81 -10.63,-8.23 -18.96,-8.92 0,-2.29 0.37,-4.97 -0.27,-7.16 -1.18,-4.05 -1.87,-0.3 -2.53,-5.84l0.02 -80.85c0,-12.69 3.06,-25.09 -8.36,-25.09 -10.21,0 -7.43,13.73 -7.43,24.16l0.07 80.9c-0.8,8.99 -2.86,-3.37 -2.86,13.86z"/>
   <path class="fil0" d="M18.58 161.67c0,3.06 -0.16,9.6 1.15,11.93 1.02,1.81 0.02,2.32 5.36,1.07 0,-5.45 1.89,-15.79 -3.72,-15.79 -2.14,0 -2.79,0.65 -2.79,2.79z"/>
  </g>
 </g>
</svg>
