<?xml version="1.0" encoding="UTF-8"?>
<!DOCTYPE svg PUBLIC "-//W3C//DTD SVG 1.1//EN" "http://www.w3.org/Graphics/SVG/1.1/DTD/svg11.dtd">
<!-- Creator: CorelDRAW -->
<svg xmlns="http://www.w3.org/2000/svg" xml:space="preserve" width="10.579mm" height="10.579mm" version="1.1" style="shape-rendering:geometricPrecision; text-rendering:geometricPrecision; image-rendering:optimizeQuality; fill-rule:evenodd; clip-rule:evenodd"
viewBox="0 0 1049.51 1049.51"
 xmlns:xlink="http://www.w3.org/1999/xlink"
 xmlns:xodm="http://www.corel.com/coreldraw/odm/2003">
 <defs>
  <style type="text/css">
   <![CDATA[
    .fil0 {fill:#6542AA}
    .fil1 {fill:#FEFDFD}
   ]]>
  </style>
 </defs>
 <g id="Camada_x0020_1">
  <metadata id="CorelCorpID_0Corel-Layer"/>
  <circle class="fil0" cx="524.75" cy="524.75" r="524.75"/>
  <path class="fil1" d="M366.57 325.25c-63.69,1.71 -110.22,-11.71 -147.06,29.98 -12.58,14.22 -13.18,24.75 -13.13,48.15l0.07 297.84c0,15.86 -4.32,45.02 4.28,54.73 12.69,14.34 41.79,45.56 72.37,47.35 46.69,2.75 182.03,0.12 238.57,0.12 79.52,0 159.3,0.63 238.79,0.05 35.97,-0.27 60.63,-26.13 74.81,-42.73 12.37,-14.47 8.19,-18.55 8.19,-50.76 0,-20.45 0.01,-40.88 0.01,-61.32 0.01,-79.57 0,-159.14 0.05,-238.71 0.02,-30 0.43,-58.8 -41.18,-77.02 -26.21,-11.47 -79.98,-7.52 -112.04,-7.51 -17.48,-13.3 -16.22,-56.76 -48.7,-72.66 -23.72,-11.61 -82.77,-6.84 -113.36,-6.84 -28.2,0 -93.11,-4.23 -114.31,5.88 -17.42,8.3 -19.91,12.66 -28.46,30.7 -5.13,10.82 -16.15,32.19 -18.9,42.74z"/>
  <path class="fil0" d="M505.84 406.62c-81.39,10.48 -150.68,82.7 -138.94,178.02 10,81.07 83.94,149.45 178.47,138.05 80.36,-9.7 149.43,-84.76 137.58,-178.42 -10.17,-80.32 -84.81,-149.52 -177.11,-137.64z"/>
  <path class="fil1" d="M512.67 459.23c-54.93,6.71 -100.84,55.09 -93.07,118.75 6.56,53.63 56.11,100.15 119.22,91.91 54.14,-7.06 99.34,-56.31 91.43,-119.15 -6.72,-53.37 -55.99,-99.05 -117.58,-91.52z"/>
 </g>
</svg>
